<svg width="30" height="28" viewBox="0 0 30 28" fill="none" xmlns="http://www.w3.org/2000/svg">
<path d="M18.86 0.5H11.14C11.0153 0.501741 10.8963 0.552273 10.8084 0.640759C10.7205 0.729245 10.6709 0.848638 10.67 0.973333C10.5133 8.34 6.72 15.335 0.191662 20.2883C0.0913952 20.364 0.024534 20.4758 0.00524515 20.5999C-0.0140437 20.724 0.0157553 20.8508 0.0883285 20.9533L4.605 27.3C4.75999 27.5167 5.05833 27.5667 5.27 27.4067C9.35166 24.33 12.6367 20.6183 15 16.5033C17.365 20.6183 20.6483 24.33 24.73 27.4067C24.7801 27.4443 24.8374 27.4715 24.8982 27.4865C24.9591 27.5016 25.0224 27.5042 25.0843 27.4943C25.1462 27.4843 25.2055 27.462 25.2586 27.4286C25.3117 27.3952 25.3575 27.3515 25.3933 27.3L29.91 20.9533C29.9833 20.8509 30.0136 20.7239 29.9946 20.5993C29.9756 20.4748 29.9088 20.3626 29.8083 20.2867C23.28 15.335 19.4867 8.34167 19.33 0.973333C19.3296 0.848506 19.28 0.728865 19.1921 0.640287C19.1041 0.551708 18.9848 0.501313 18.86 0.5Z" fill="#FF875B"/>
</svg>
